<svg width="15" height="11" viewBox="0 0 15 11" fill="none" xmlns="http://www.w3.org/2000/svg">
<path d="M14.0414 3.97266C13.4125 4.46484 12.6195 5.06641 9.83044 7.08984C9.28357 7.5 8.27185 8.40234 7.31482 8.40234C6.33044 8.40234 5.34607 7.5 4.77185 7.08984C1.98279 5.06641 1.18982 4.46484 0.560913 3.97266C0.451538 3.89062 0.314819 3.97266 0.314819 4.10938V9.6875C0.314819 10.4258 0.889038 11 1.62732 11H13.0023C13.7133 11 14.3148 10.4258 14.3148 9.6875V4.10938C14.3148 3.97266 14.1508 3.89062 14.0414 3.97266ZM7.31482 7.5C7.94373 7.52734 8.84607 6.70703 9.31091 6.37891C12.9476 3.75391 13.2211 3.50781 14.0414 2.85156C14.2054 2.74219 14.3148 2.55078 14.3148 2.33203V1.8125C14.3148 1.10156 13.7133 0.5 13.0023 0.5H1.62732C0.889038 0.5 0.314819 1.10156 0.314819 1.8125V2.33203C0.314819 2.55078 0.396851 2.74219 0.560913 2.85156C1.38123 3.50781 1.65466 3.75391 5.29138 6.37891C5.75623 6.70703 6.65857 7.52734 7.31482 7.5Z" fill="white"/>
</svg>
