<svg width="15" height="15" viewBox="0 0 15 15" fill="none" xmlns="http://www.w3.org/2000/svg">
<path d="M14.5188 10.6484L11.4563 9.33594C11.3743 9.30859 11.2922 9.28125 11.1829 9.28125C10.9915 9.28125 10.8 9.39062 10.6907 9.52734L9.32349 11.1953C7.19067 10.1836 5.49536 8.48828 4.48364 6.35547L6.15161 4.98828C6.28833 4.87891 6.39771 4.6875 6.39771 4.46875C6.39771 4.38672 6.37036 4.30469 6.34302 4.22266L5.03052 1.16016C4.92114 0.914062 4.67505 0.75 4.40161 0.75C4.37427 0.75 4.31958 0.777344 4.26489 0.777344L1.42114 1.43359C1.12036 1.51562 0.928955 1.76172 0.928955 2.0625C0.928955 9.08984 6.58911 14.75 13.6165 14.75C13.9172 14.75 14.1633 14.5586 14.2454 14.2578L14.9016 11.4141C14.9016 11.3594 14.9016 11.3047 14.9016 11.2773C14.9016 11.0039 14.7375 10.7578 14.5188 10.6484Z" fill="white"/>
</svg>
